<svg width="34" height="35" viewBox="0 0 34 35" fill="none" xmlns="http://www.w3.org/2000/svg">
<path d="M21.0578 34.0902C21.1288 34.6967 20.8446 35 20.2053 35H14.0248C13.4565 35 13.1723 34.6967 13.1723 34.0902L13.5453 23.6009L4.64748 29.2737C4.11468 29.5591 3.7062 29.4699 3.42204 29.0061L0.33179 23.8685C0.0121092 23.369 0.11867 22.9766 0.651471 22.6911L9.54926 17.8746L0.544911 13.3257C0.0121091 13.0403 -0.129971 12.6478 0.118669 12.1483L2.94252 6.52906C3.22668 5.99389 3.6174 5.88685 4.11468 6.20795L13.4387 11.7202L13.0125 0.90979C13.0125 0.303263 13.2966 0 13.8649 0H19.8856C20.4894 0 20.7914 0.285424 20.7914 0.856271L20.4184 11.6667L29.6359 5.67279C30.1687 5.31601 30.5772 5.4052 30.8613 5.94037L33.845 11.185C34.1292 11.6845 34.0226 12.0948 33.5253 12.4159L24.3611 17.4465L33.1524 21.9419C33.6496 22.1916 33.7917 22.5663 33.5786 23.0658L30.9146 28.792C30.666 29.3272 30.2752 29.4343 29.7424 29.1132L20.6315 23.6544L21.0578 34.0902Z" fill="#DE2B1C"/>
</svg>
